<svg width="16" height="16" viewBox="0 0 16 16" fill="none" xmlns="http://www.w3.org/2000/svg">
<path d="M15.04 8.16666C15.04 7.64666 14.9933 7.14666 14.9067 6.66666H8V9.50666H11.9467C11.7733 10.42 11.2533 11.1933 10.4733 11.7133V13.56H12.8533C14.24 12.28 15.04 10.4 15.04 8.16666Z" fill="white"/>
<path d="M8.00004 15.3333C9.98004 15.3333 11.64 14.68 12.8534 13.56L10.4734 11.7133C9.82004 12.1533 8.9867 12.42 8.00004 12.42C6.09337 12.42 4.47337 11.1333 3.89337 9.39999H1.45337V11.2933C2.66004 13.6867 5.13337 15.3333 8.00004 15.3333Z" fill="white"/>
<path d="M3.89341 9.39335C3.74675 8.95335 3.66008 8.48668 3.66008 8.00002C3.66008 7.51335 3.74675 7.04668 3.89341 6.60668V4.71335H1.45341C0.953415 5.70002 0.666748 6.81335 0.666748 8.00002C0.666748 9.18668 0.953415 10.3 1.45341 11.2867L3.35341 9.80668L3.89341 9.39335Z" fill="white"/>
<path d="M8.00004 3.58666C9.08004 3.58666 10.04 3.95999 10.8067 4.67999L12.9067 2.57999C11.6334 1.39332 9.98004 0.666656 8.00004 0.666656C5.13337 0.666656 2.66004 2.31332 1.45337 4.71332L3.89337 6.60666C4.47337 4.87332 6.09337 3.58666 8.00004 3.58666Z" fill="white"/>
</svg>
